PathFileType	4	(X/Y/Z)	6_coords_data.trc
DataRate	CameraRate	NumFrames	NumMarkers	Units	OrigDataRate	OrigDataStartFrame	OrigNumFrames
30.0	30.0	8	21	m	30.0	62	82
Frame#	Time	THUMB_TIP	THUMB_IP	THUMB_MCP	THUMB_CMC	INDEX_TIP	INDEX_DIP	INDEX_PIP	INDEX_MCP	MIDDLE_TIP	MIDDLE_DIP	MIDDLE_PIP	MIDDLE_MCP	RING_TIP	RING_DIP	RING_PIP	RING_MCP	PINKY_TIP	PINKY_DIP	PINKY_PIP	PINKY_MCP	WRIST
X1	Y1	Z1	X2	Y2	Z2	X3	Y3	Z3	X4	Y4	Z4	X5	Y5	Z5	X6	Y6	Z6	X7	Y7	Z7	X8	Y8	Z8	X9	Y9	Z9	X10	Y10	Z10	X11	Y11	Z11	X12	Y12	Z12	X13	Y13	Z13	X14	Y14	Z14	X15	Y15	Z15	X16	Y16	Z16	X17	Y17	Z17	X18	Y18	Z18	X19	Y19	Z19	X20	Y20	Z20	X21	Y21	Z21
60	2.0333333333333243	0.5308212507164383	-0.01591837266873919	-0.15336406712448328	0.5219134088845214	-0.01932489525907355	-0.1324584229646136	0.49815116823521477	-0.026775295250188402	-0.113785783641346	0.48262102023829623	-0.025727364787964224	-0.07198140175451323	0.5776062237846851	0.04504321008130674	-0.14793929640136513	0.5604621105872737	0.04221807595130911	-0.14283067625284487	0.537945176303944	0.035370001210559	-0.133993177974185	0.5069561985722024	0.015235124438418457	-0.1128293860050612	0.5905771496707197	0.0558688672416382	-0.11887077882895303	0.5727240905823016	0.055613973538528594	-0.11583708299951306	0.5447083239261179	0.05092311641782965	-0.10931617599669002	0.5088274919992919	0.029549264438965328	-0.09344569166808603	0.5928297648213972	0.05033788508986681	-0.08900859216465717	0.5752309598388823	0.0523183301600898	-0.08563814701434869	0.5507986671414979	0.05072427493346465	-0.08108819751091295	0.5152714879181612	0.033339482853772084	-0.07270312894954872	0.5819145240378123	0.01803452502692371	-0.06224132691608519	0.569827174184623	0.029358770181876825	-0.05792190042670914	0.5508939925589799	0.037559275472461406	-0.05403623889879572	0.5164644140361193	0.027191989617389778	-0.051206582075537466	0.4622830810018609	-0.023011742144276925	-0.051989820119430985
61	2.0666666666666575	0.53170279849701	-0.014493725949955794	-0.15263055517832147	0.5227757998945227	-0.018132433249346436	-0.13177225934331732	0.499086852933884	-0.026167081100376244	-0.11324934850819224	0.4829428817335457	-0.025573998884690252	-0.07166917958876523	0.5763445447294475	0.04782177384336028	-0.14850173790756677	0.5594570720599484	0.0441261684177372	-0.14310212983150883	0.5373712921738403	0.03631657755282924	-0.1339786189752032	0.5070465291377969	0.015266763052516397	-0.11274303209114844	0.5894530284662225	0.059613258959464566	-0.11941421214222253	0.5717008138229333	0.05815426587960193	-0.11613851153754318	0.544030788832335	0.05200797243995303	-0.10935600875660761	0.5088438770718425	0.02956922532668238	-0.09340195630132203	0.5922475414304063	0.05437861342515271	-0.08889265249184714	0.5745520207413627	0.054958244109538645	-0.08549668785520109	0.5502674345593023	0.05185209771071331	-0.08093700502465806	0.5152842998499735	0.03331974753163913	-0.07272402038147696	0.5827650559057245	0.02042694393259159	-0.06178108753181605	0.5699328786117597	0.03094349073285596	-0.057569500028972875	0.5506289154123292	0.03829925322403038	-0.053819595767733985	0.5163816882635508	0.027281716861856098	-0.0512457317215661	0.4622830810018608	-0.023011742144276925	-0.051989820119430985
62	2.0999999999999908	0.5322555537079898	-0.012857143272258065	-0.15204961159386043	0.5234228722708197	-0.016795529445008617	-0.13120559919260338	0.4998894909073055	-0.025456061884302605	-0.11276664207818571	0.48322607071178036	-0.025416759236207342	-0.07138767540803764	0.5752059533484988	0.05005981483926669	-0.148916486685024	0.5585549650530792	0.0456825545387719	-0.14329650616481632	0.5368451783713559	0.037098525012142725	-0.13396862150000488	0.5070870192552818	0.015286471027233572	-0.11270074993320656	0.5882872009338915	0.06283287931393777	-0.11988589871169175	0.5706913892833548	0.060318563657391855	-0.11641233726296474	0.5433705523801038	0.05296440068044184	-0.10941964766493362	0.5088364478451897	0.029583943740926988	-0.0933916166482705	0.5914891719165474	0.05794614047294333	-0.08878783555578207	0.5737953730536125	0.05731199278151289	-0.08539264211453829	0.5497141407607764	0.0528910322556605	-0.08083969380741629	0.5152683076353515	0.0333125575277784	-0.07278433896575554	0.5834300345099648	0.022717505135436133	-0.061451893661311874	0.5699576070846718	0.0324382233952224	-0.05732862605126371	0.5503533887276794	0.03901228415769986	-0.053686049119665236	0.5162975207472053	0.02737310716466912	-0.051317322452989644	0.4622830810018608	-0.023011742144276925	-0.051989820119430985
63	2.133333333333324	0.5324593341713255	-0.011085935265220836	-0.1516516219259153	0.5238017639894514	-0.015358233762992057	-0.13079990870872693	0.5005197919418636	-0.024673285806091627	-0.11236083110138217	0.4834630562169331	-0.025268271715304214	-0.07114671024241309	0.574267739095302	0.051771636806703936	-0.14919657240841944	0.5578107688269472	0.046883265835666155	-0.1434283873527889	0.5364028494260976	0.0377204637398979	-0.13395453503810126	0.5071086308655616	0.015297636019386052	-0.11267774839293804	0.5871876001950762	0.06554986506771376	-0.12025531581454668	0.5697702607298729	0.062157862740558234	-0.11663169798612705	0.5427977888858081	0.053757550527967934	-0.10946719749047895	0.5088365878209572	0.02958499478461407	-0.0933901239984774	0.5906430206212585	0.061115994052199696	-0.0886652531351918	0.5730207846546429	0.05939784918552182	-0.08527338377537985	0.5491730278293914	0.05383627562459492	-0.08074200728141395	0.5152450786436304	0.0333153288745518	-0.07283594362556572	0.5839231119856949	0.024952785371533004	-0.06115787513277232	0.5699168152959735	0.03392656770662039	-0.057121182966904716	0.5500535142590803	0.03973148561548756	-0.05357657875922944	0.516204967496357	0.02747277928334757	-0.051366725344614395	0.4622830810018608	-0.023011742144276925	-0.051989820119430985
64	2.1666666666666576	0.5323949744570398	-0.009271215139413869	-0.15140359633249806	0.5239782600236991	-0.013902986210224788	-0.1305300337497668	0.5010165948495098	-0.02386505620790258	-0.11202762596618943	0.48364780814610697	-0.02511020007375475	-0.0709586003482735	0.5735901792207267	0.053008418207530106	-0.14934682161306687	0.5572876655847773	0.047736095986962934	-0.1434790564889165	0.5360937147497198	0.03817563070876606	-0.13391747792334724	0.5071323897922713	0.015318677901138167	-0.11264690061432842	0.586260335938491	0.06771172366016509	-0.1204897515006575	0.5690172803637552	0.06361599692081865	-0.11676120527951728	0.54236241918624	0.05435592813779566	-0.10946880843478451	0.5088308017289566	0.029600655654549057	-0.09337672852016077	0.5898583689732908	0.06371134053830663	-0.08846486645741303	0.5723423520561259	0.061098588941588816	-0.08509400893276997	0.548725854838827	0.054592260371862156	-0.08060973343631872	0.515222418391127	0.033325494121604016	-0.07286601124012537	0.584321952800817	0.02704226936228482	-0.060874939367893566	0.5698620490249632	0.03530233437599861	-0.05691482462684533	0.5497867827666112	0.04038573307006954	-0.05345725881064001	0.5161492288879591	0.02753274046280585	-0.051408112378973914	0.4622830810018609	-0.023011742144276925	-0.051989820119430985
65	2.1999999999999904	0.5322999597403683	-0.0076444454517078375	-0.15115629081939413	0.5240896024658341	-0.012583361710382768	-0.13027095769745656	0.5014274375337003	-0.02315047881398924	-0.11173498411343791	0.4838011132063953	-0.02498551176938868	-0.07079801616561282	0.5731314689410745	0.05384087154557027	-0.14939424145299196	0.5569280915898805	0.04831775261275517	-0.1434827509752193	0.5358748618085538	0.03848564024161505	-0.13388582880736075	0.5071513072377849	0.015308478751769439	-0.11263935399167235	0.5854752092498723	0.06943409059982053	-0.1206625632674006	0.5683918608623678	0.06477341735072994	-0.11686291423935102	0.5420142363301943	0.054819137301766685	-0.10947760566445058	0.5088423286026778	0.029585447112803642	-0.0933830929919724	0.5891756324501086	0.06578381932707122	-0.08826246681367356	0.5717742538622569	0.06245921090830231	-0.08492495245353804	0.5483727280506699	0.05518080525920721	-0.08050077118500365	0.5152303572735604	0.03330538786422643	-0.07290009969703742	0.5846026142195513	0.028845361914550338	-0.06065204159071125	0.5697904018116148	0.03648693184720897	-0.05675271183465547	0.549552952690351	0.04093537804537728	-0.053366120851637056	0.5161032039182193	0.027582159919297577	-0.05144535960707319	0.4622830810018609	-0.023011742144276925	-0.051989820119430985
66	2.2333333333333236	0.5323576305790971	-0.006347670657489979	-0.1508410024043052	0.5242708131757479	-0.011525075937596108	-0.1299652303503088	0.5018188182113594	-0.022580720778530905	-0.11145845755572908	0.48393429731664706	-0.02486887341899935	-0.07065651802020567	0.5728162905608795	0.05446983139681161	-0.14934777750158068	0.556674647713461	0.0487726037455114	-0.14343263056548147	0.5357251035352942	0.038733064663246775	-0.13382356782540508	0.5071545084318764	0.015319713307085592	-0.1126298855660734	0.5848301530509118	0.07078564442587632	-0.12075061693541267	0.5678816871617884	0.06569062750472521	-0.11690480017191385	0.5417296899853847	0.055198827683302865	-0.10946136479619056	0.5088443565167143	0.02957838650801936	-0.09338978249580093	0.5885754489941301	0.06743634418136513	-0.08805448562415474	0.5712807823350154	0.0635629550691742	-0.08475427927671608	0.5480666350602597	0.05567514830567488	-0.08038783338014993	0.5152309357164884	0.033295749676529485	-0.07292457674492192	0.5847511999963149	0.0304030629204316	-0.06045681149160392	0.5696736368183655	0.037538480041518385	-0.05661585964042881	0.5493153514848153	0.041441043318684034	-0.053280857819518634	0.5160360085332896	0.027653799739600693	-0.051469588042326486	0.462283081001861	-0.023011742144276925	-0.051989820119430985
67	2.266666666666657	0.5324602704690914	-0.005413305158567305	-0.15053965346541553	0.5244365570317594	-0.010759076413805913	-0.1296819749665451	0.50212242738392	-0.022188786942419436	-0.111235800965102	0.48403851596818703	-0.024802698717882987	-0.07054145721639377	0.5726868594525825	0.05483032558630385	-0.1492731127861629	0.5565863469709753	0.04901405366020861	-0.14336172727079227	0.5357055534170687	0.03883042900212552	-0.13375464226115408	0.5071976214141944	0.015291410415896434	-0.11261585064676272	0.5844198902571931	0.07172439804622222	-0.12075641199408943	0.5675787400865295	0.06630135248134239	-0.11688778979356468	0.5415982637915651	0.055409880155695146	-0.1094178345014325	0.5088857315253061	0.029543693266374516	-0.09338728461892021	0.5881594746181288	0.06864620766815521	-0.08779979029696283	0.5709582071914501	0.06434004852513986	-0.08454811498246628	0.5478947236580622	0.05598672761683521	-0.08024954125295591	0.5152637498444834	0.03326442886787284	-0.072925777088236	0.5849011286052155	0.031695400199517665	-0.060231811675869495	0.5696044372264613	0.038378918069285506	-0.056444751899784096	0.5491537293872208	0.04181844278543945	-0.05316599640402164	0.5160193687880549	0.027671496756473513	-0.05147439457795078	0.4622830810018609	-0.023011742144276925	-0.051989820119430985
